<svg xmlns="http://www.w3.org/2000/svg" fill="white" width="52.862" height="55.34" viewBox="0 0 52.862 55.34">
  <path id="Path_3" data-name="Path 3" d="M96.9,73.5l-3.5-2-1.8-5.9a10.712,10.712,0,0,0-5.3-6.5l-7.5-4a3.772,3.772,0,0,0-5.1,1.4c-.1.1-.1.3-.2.4l-8.1-4.5a3.866,3.866,0,0,0-5.2,1.4,4.8,4.8,0,0,0-.5,1.7,3.806,3.806,0,0,0-3.5,6.1A3.039,3.039,0,0,0,55,62.9a3.866,3.866,0,0,0,1.4,5.2l1.4.8a3.126,3.126,0,0,0-.9,1.1,3.866,3.866,0,0,0,1.4,5.2l5.1,2.9a25.16,25.16,0,0,1,3.9,2.7l.2.1c3.2,2.5,11.6,9,17.7,5.1l3.5,2a1.185,1.185,0,1,0,1.1-2.1l-4.1-2.3a1.23,1.23,0,0,0-1.3.1c-4.7,3.7-12.5-2.4-15.5-4.7l-.2-.1a27.777,27.777,0,0,0-4.2-2.8l-5.1-2.9a1.342,1.342,0,0,1-.5-1.9,1.362,1.362,0,0,1,1.9-.5L68.3,75a1.185,1.185,0,1,0,1.1-2.1L57.7,66a1.362,1.362,0,0,1-.5-1.9,1.342,1.342,0,0,1,1.9-.5l10.3,5.8A1.226,1.226,0,0,0,71,69a1.165,1.165,0,0,0-.5-1.6l-12-6.8a1.389,1.389,0,1,1,1.4-2.4L71,64.5a1.185,1.185,0,1,0,1.1-2.1l-9.4-5.3a1.362,1.362,0,0,1-.5-1.9,1.342,1.342,0,0,1,1.9-.5l9,5.1h0a3.992,3.992,0,0,0,1.8,2.4l2.6,1.5c-2.1,8.4,4.5,11.2,4.6,11.2a1.24,1.24,0,0,0,1.5-.5.1.1,0,0,1,.1-.1,1.189,1.189,0,0,0-.7-1.5c-.2-.1-4.5-1.9-3.4-7.7a7.006,7.006,0,0,1,1,.8l.6.5a1.2,1.2,0,1,0,1.6-1.8l-.6-.5A4.438,4.438,0,0,0,80,62l-3.8-2.2a1.272,1.272,0,0,1-.7-.9,1.389,1.389,0,0,1,.2-1.1,1.362,1.362,0,0,1,1.9-.5l7.5,4a8.864,8.864,0,0,1,4.2,5.1l1.9,6.4a1.344,1.344,0,0,0,.6.7l3.9,2.2a1.256,1.256,0,0,0,1.2-2.2Z" transform="translate(49.07 -73.173) rotate(60)"/>
</svg>
