<svg xmlns="http://www.w3.org/2000/svg" fill="white" width="27.694" height="35.5" viewBox="0 0 27.694 35.5">
  <path id="Path_1" data-name="Path 1" d="M58.1,45.7a3.783,3.783,0,0,0,3.3.5,4,4,0,0,0,2.7-3.8V38.9A5.17,5.17,0,0,0,66.7,35l.7-5.1a9.647,9.647,0,0,0-2.3-7.6l-4.5-5.2V13a1.2,1.2,0,0,0-2.4,0v4.6a1.135,1.135,0,0,0,.3.8l4.8,5.5A6.988,6.988,0,0,1,65,29.6l-.7,5.1a2.852,2.852,0,0,1-3,2.5l-6.2-.1a1.367,1.367,0,0,1-1.4-1.4,1.777,1.777,0,0,1,.4-1,1.284,1.284,0,0,1,1-.4l4.2.2a1.188,1.188,0,0,0,1.2-1l.4-2.7a1.246,1.246,0,0,0-1-1.4,1.308,1.308,0,0,0-1.4,1l-.2,1.4a6.617,6.617,0,0,1-3.9-6.3,1.155,1.155,0,0,0-1.1-1.3h-.1A1.278,1.278,0,0,0,52,25.3,8.7,8.7,0,0,0,54.4,32a3.719,3.719,0,0,0-2.2,1,5.5,5.5,0,0,0-.7.9,3.7,3.7,0,0,0-2.1-.6,3.838,3.838,0,0,0-3,1.5,3.408,3.408,0,0,0-2.2-.7,2.934,2.934,0,0,0-1.6.4,55.51,55.51,0,0,1-.7-9.4,6.563,6.563,0,0,1,3-5.4L46,19a1.1,1.1,0,0,0,.6-1V13.2a1.2,1.2,0,0,0-2.4,0v4.1l-.2.1a8.96,8.96,0,0,0-4.2,7.4,50.959,50.959,0,0,0,1.1,11.7,5.019,5.019,0,0,0-.2,1.2v3.9a3.974,3.974,0,0,0,3.8,4,4.45,4.45,0,0,0,2.3-.7,3.838,3.838,0,0,0,3,1.5,4.1,4.1,0,0,0,2.2-.7,3.973,3.973,0,0,0,3.1,1.6A4.27,4.27,0,0,0,58.1,45.7Zm.7-6.2,2.4.1h.4v3a1.4,1.4,0,0,1-2.8,0ZM46,41.8a1.4,1.4,0,0,1-2.8,0V37.7a1.4,1.4,0,0,1,2.8,0Zm5.2.7a1.4,1.4,0,0,1-2.8,0V37a1.4,1.4,0,1,1,2.8,0Zm2.4.9V39.1a8.331,8.331,0,0,0,1.5.4h1.3v3.9a1.4,1.4,0,1,1-2.8,0Z" transform="translate(67.494 47.3) rotate(180)"/>
</svg>
