<svg xmlns="http://www.w3.org/2000/svg" fill="white" width="56.856" height="59.016" viewBox="0 0 56.856 59.016">
  <path id="Path_2" data-name="Path 2" d="M45.5,57.3a3.66,3.66,0,0,0-2.9-.1l-9,3.3,6-5a3.835,3.835,0,1,0-4.9-5.9L24,58.5a5.211,5.211,0,0,0-5-.5l-4.8,2a9.661,9.661,0,0,0-5.4,5.8L6.6,72.3,3,74.4A1.081,1.081,0,0,0,2.6,76a1.176,1.176,0,0,0,1.6.4l4-2.3c.3-.1.4-.4.5-.7L11,66.5a7.147,7.147,0,0,1,4.1-4.4l4.8-2a3.014,3.014,0,0,1,3.7,1.2v.1l3,5.4a1.429,1.429,0,0,1-.5,1.9,1.09,1.09,0,0,1-1.1.2,1.143,1.143,0,0,1-.8-.7l-2-3.8a1.285,1.285,0,0,0-1.5-.6l-2.5,1A1.17,1.17,0,1,0,19,67l1.3-.5A6.519,6.519,0,0,1,16.8,73a1.2,1.2,0,0,0-.6,1.6.1.1,0,0,0,.1.1,1.167,1.167,0,0,0,1.5.5,9.107,9.107,0,0,0,4.6-5.4,3.9,3.9,0,0,0,2,1.3,2.769,2.769,0,0,0,1.3.1,4.4,4.4,0,0,0,.2,1.6l.3.6a4.321,4.321,0,0,0,2.1,1.7,3.582,3.582,0,0,0,0,2.5l.3.6a4.263,4.263,0,0,0,1.1,1.2,64,64,0,0,1-7.2,4.8,6.493,6.493,0,0,1-6.2.1l-1.2-.6a1.275,1.275,0,0,0-1.2,0L9.8,86A1.166,1.166,0,0,0,11,88l3.6-2.1.6.3a8.847,8.847,0,0,0,8.5-.1,56.324,56.324,0,0,0,9-6.2c.2,0,.3-.1.5-.1L37,78.4a3.821,3.821,0,0,0,2.3-4.9,3.353,3.353,0,0,0-1.5-1.8c.1-.1.2-.3.3-.4a3.66,3.66,0,0,0,.1-2.9,3.458,3.458,0,0,0-.7-1.2l7.7-2.8a3.607,3.607,0,0,0,2.2-2,3.66,3.66,0,0,0,.1-2.9A4.3,4.3,0,0,0,45.5,57.3Zm-19.8,3a.1.1,0,0,0-.1-.1l10.5-8.8a1.426,1.426,0,0,1,2,.2c.1.1.1.1.1.2a1.5,1.5,0,0,1-.3,1.8L27,62.7Zm3.1,12.6a1.387,1.387,0,0,1-.7-.8,1.367,1.367,0,0,1,.8-1.8l5.2-1.9a2.054,2.054,0,0,1,1.1,0,.9.9,0,0,1,.6.6c0,.1.1.1.1.2a1.417,1.417,0,0,1-.1,1.1,1.387,1.387,0,0,1-.8.7l-5.2,1.9A.908.908,0,0,1,28.8,72.9ZM37,75.5a1.387,1.387,0,0,1-.8.7l-3.8,1.4a2.054,2.054,0,0,1-1.1,0,.969.969,0,0,1-.7-.8,2.054,2.054,0,0,1,0-1.1,1.779,1.779,0,0,1,.8-.7l3.8-1.4a1.367,1.367,0,0,1,1.8.8A1.083,1.083,0,0,1,37,75.5Zm8.1-14.1a1.387,1.387,0,0,1-.8.7L29.1,67.6a4.333,4.333,0,0,0-.4-1.9l-.4-.8,15.1-5.5a2.054,2.054,0,0,1,1.1,0,1.387,1.387,0,0,1,.7.8A1.627,1.627,0,0,1,45.1,61.4Z" transform="translate(-43.412 16.983) rotate(-60)"/>
</svg>
